# Blender v2.77 (sub 0) OBJ File: 'platform.blend'
# www.blender.org
mtllib cube.mtl
o Cube.001
v 2.642467 -2.642467 2.642467
v -2.642466 -2.642467 -2.642468
v 2.642467 -2.642467 -2.642467
v -2.642467 2.642467 -2.642467
v 2.642465 2.642467 2.642468
v 2.642468 2.642467 -2.642465
v -2.642467 -2.642467 2.642466
v -2.642468 2.642467 2.642466
vt 0.9999 0.9999
vt 0.0001 0.0001
vt 0.9999 0.0001
vt 0.9999 0.9999
vt 0.0001 0.0001
vt 0.9999 0.0001
vt 0.0001 0.9999
vt 0.0001 0.0001
vt 0.9999 0.9999
vt 0.0001 0.0001
vt 0.9999 0.0001
vt 0.0001 0.0001
vt 0.9999 0.9999
vt 0.0001 0.9999
vt 0.9999 0.9999
vt 0.0001 0.0001
vt 0.0001 0.9999
vt 0.9999 0.0001
vt 0.0001 0.9999
vn 0.0000 -1.0000 -0.0000
vn 0.0000 1.0000 0.0000
vn 1.0000 0.0000 0.0000
vn -0.0000 -0.0000 1.0000
vn -1.0000 -0.0000 -0.0000
vn 0.0000 0.0000 -1.0000
usemtl Material.001
s 1
f 1/1/1 2/2/1 3/3/1
f 4/4/2 5/5/2 6/6/2
f 6/6/3 1/7/3 3/8/3
f 5/9/4 7/10/4 1/11/4
f 8/12/5 2/13/5 7/14/5
f 3/15/6 4/16/6 6/6/6
f 1/1/1 7/14/1 2/2/1
f 4/4/2 8/17/2 5/5/2
f 6/6/3 5/9/3 1/7/3
f 5/9/4 8/17/4 7/10/4
f 8/12/5 4/18/5 2/13/5
f 3/15/6 2/19/6 4/16/6
